<?xml version="1.0" standalone="no"?>
<!DOCTYPE svg PUBLIC "-//W3C//DTD SVG 20010904//EN"
 "http://www.w3.org/TR/2001/REC-SVG-20010904/DTD/svg10.dtd">
<svg version="1.0" xmlns="http://www.w3.org/2000/svg"
 width="260.000000pt" height="260.000000pt" viewBox="0 0 260.000000 260.000000"
 preserveAspectRatio="xMidYMid meet">
<metadata>
Created by potrace 1.14, written by Peter Selinger 2001-2017
</metadata>
<g transform="translate(0.000000,260.000000) scale(0.100000,-0.100000)"
fill="#000000" stroke="none">
<path d="M1064 2057 c-148 -95 -270 -179 -272 -187 -1 -9 56 -107 128 -219 72
-112 129 -205 127 -207 -2 -2 -158 -103 -348 -225 -189 -122 -346 -223 -348
-224 -5 -6 140 -235 149 -235 5 0 165 101 356 224 308 199 349 223 359 208 7
-9 67 -104 135 -210 95 -149 127 -193 140 -189 28 7 542 340 547 354 3 8 -17
48 -44 91 -592 922 -638 992 -653 992 -4 0 -128 -78 -276 -173z m580 -399
c168 -263 306 -482 306 -487 0 -9 -433 -291 -447 -291 -4 0 -149 219 -321 487
-234 362 -310 488 -300 494 7 5 110 71 228 147 118 77 218 137 222 133 3 -3
144 -221 312 -483z m-545 -355 l38 -60 -176 -112 c-97 -62 -234 -150 -306
-196 -71 -47 -132 -84 -135 -85 -7 0 -83 120 -79 124 11 11 614 394 616 392 1
-1 20 -29 42 -63z"/>
<path d="M1247 2002 c-81 -46 -92 -56 -83 -77 5 -14 15 -11 69 19 35 20 66 36
70 36 3 0 18 -21 33 -47 15 -27 43 -72 62 -102 30 -48 36 -52 49 -38 14 14 8
27 -57 131 -40 64 -73 116 -74 116 0 0 -32 -18 -69 -38z"/>
<path d="M2203 1357 c-86 -19 -93 -22 -93 -45 0 -20 4 -23 23 -19 12 3 65 15
118 27 86 19 96 23 92 41 -6 23 -20 23 -140 -4z"/>
<path d="M2135 1102 c-3 -3 -5 -13 -5 -23 0 -19 8 -21 133 -39 87 -13 110 -9
105 17 -3 14 -24 21 -116 34 -62 8 -115 13 -117 11z"/>
<path d="M2030 955 c-18 -22 -10 -34 78 -113 67 -61 81 -70 92 -57 6 8 10 18
8 23 -1 5 -40 44 -84 86 -70 64 -83 74 -94 61z"/>
</g>
</svg>
